<svg width="0" height="0" class="hidden">
  <symbol xmlns="http://www.w3.org/2000/svg" fill="none" viewBox="0 0 9 9" id="arrow-down">
    <g stroke="#E35454" stroke-linecap="round" stroke-width="1.603">
      <path stroke-linejoin="round" d="M1.21757 5.10773L4.20171 8.13636L7.23038 5.15219"></path>
      <path d="M4.25558 0.920989L4.20215 8.13635"></path>
    </g>
  </symbol>
  <symbol xmlns="http://www.w3.org/2000/svg" fill="none" viewBox="0 0 8 9" id="arrow-up">
    <g stroke="#60D39C" stroke-linecap="round" stroke-width="1.603">
      <path stroke-linejoin="round" d="M1.13379 3.93123L4.14027 0.924744L7.14676 3.93123"></path>
      <path d="M4.14062 8.1403L4.14062 0.924744"></path>
    </g>
  </symbol>
  <symbol xmlns="http://www.w3.org/2000/svg" fill="none" viewBox="0 0 24 24" id="burger-menu">
    <g fill="#101010" fill-rule="evenodd" clip-rule="evenodd">
      <path d="M3.6 6a1.2 1.2 0 0 1 1.2-1.2h14.4a1.2 1.2 0 1 1 0 2.4H4.8A1.2 1.2 0 0 1 3.6 6ZM3.6 12a1.2 1.2 0 0 1 1.2-1.2h14.4a1.2 1.2 0 1 1 0 2.4H4.8A1.2 1.2 0 0 1 3.6 12ZM10.8 18a1.2 1.2 0 0 1 1.2-1.2h7.2a1.2 1.2 0 1 1 0 2.4H12a1.2 1.2 0 0 1-1.2-1.2Z"></path>
    </g>
  </symbol>
  <symbol xmlns="http://www.w3.org/2000/svg" fill="none" viewBox="0 0 24 24" id="calendar">
    <path stroke="#fff" stroke-linecap="round" stroke-linejoin="round" stroke-width="2" d="M8 7V3m8 4V3m-9 8h10M5 21h14a2 2 0 0 0 2-2V7a2 2 0 0 0-2-2H5a2 2 0 0 0-2 2v12a2 2 0 0 0 2 2Z"></path>
  </symbol>
  <symbol xmlns="http://www.w3.org/2000/svg" fill="none" viewBox="0 0 24 24" id="check-mark">
    <path stroke="#46B277" stroke-linecap="round" stroke-linejoin="round" stroke-width="2" d="m9 12 2 2 4-4m6 2a9 9 0 1 1-18 0 9 9 0 0 1 18 0Z"></path>
  </symbol>
  <symbol xmlns="http://www.w3.org/2000/svg" fill="none" viewBox="0 0 24 24" id="check-mark-board">
    <path fill="#fff" d="M9.707 13.293a1 1 0 0 0-1.414 1.414l1.414-1.414ZM11 16l-.707.707a1 1 0 0 0 1.414 0L11 16Zm4.707-3.293a1 1 0 0 0-1.414-1.414l1.414 1.414ZM18 7v12h2V7h-2Zm-1 13H7v2h10v-2ZM6 19V7H4v12h2ZM7 6h2V4H7v2Zm8 0h2V4h-2v2ZM7 20a1 1 0 0 1-1-1H4a3 3 0 0 0 3 3v-2Zm11-1a1 1 0 0 1-1 1v2a3 3 0 0 0 3-3h-2Zm2-12a3 3 0 0 0-3-3v2a1 1 0 0 1 1 1h2ZM6 7a1 1 0 0 1 1-1V4a3 3 0 0 0-3 3h2Zm2.293 7.707 2 2 1.414-1.414-2-2-1.414 1.414Zm3.414 2 4-4-1.414-1.414-4 4 1.414 1.414ZM11 4h2V2h-2v2Zm2 2h-2v2h2V6Zm-2 0a1 1 0 0 1-1-1H8a3 3 0 0 0 3 3V6Zm3-1a1 1 0 0 1-1 1v2a3 3 0 0 0 3-3h-2Zm-1-1a1 1 0 0 1 1 1h2a3 3 0 0 0-3-3v2Zm-2-2a3 3 0 0 0-3 3h2a1 1 0 0 1 1-1V2Z"></path>
  </symbol>
  <symbol xmlns="http://www.w3.org/2000/svg" fill="none" viewBox="0 0 24 24" id="list-board">
    <path stroke="#fff" stroke-linecap="round" stroke-width="2" d="M9 5H7a2 2 0 0 0-2 2v12a2 2 0 0 0 2 2h10a2 2 0 0 0 2-2V7a2 2 0 0 0-2-2h-2M9 5a2 2 0 0 0 2 2h2a2 2 0 0 0 2-2M9 5a2 2 0 0 1 2-2h2a2 2 0 0 1 2 2m-3 7h3m-3 4h3m-6-4h.01M9 16h.01"></path>
  </symbol>
  <symbol xmlns="http://www.w3.org/2000/svg" fill="none" viewBox="0 0 112 52" id="logo">
    <g fill="#101010">
      <path d="m54.517 28.352 3.66 1.868a8.596 8.596 0 0 1-2.878 2.37c-1.154.597-2.413.895-3.778.895-1.531 0-2.929-.372-4.194-1.115a8.59 8.59 0 0 1-3.012-2.982c-.743-1.256-1.115-2.643-1.115-4.16 0-1.151.216-2.224.65-3.218a8.366 8.366 0 0 1 1.78-2.638 8.364 8.364 0 0 1 2.663-1.789 8.167 8.167 0 0 1 3.228-.644c1.365 0 2.624.299 3.778.895a8.44 8.44 0 0 1 2.879 2.402l-3.661 1.852a4.058 4.058 0 0 0-1.382-.973 3.957 3.957 0 0 0-1.614-.345c-.799 0-1.52.209-2.163.628a4.461 4.461 0 0 0-1.531 1.632 4.403 4.403 0 0 0-.566 2.198 4.498 4.498 0 0 0 2.097 3.815 3.955 3.955 0 0 0 2.163.612c.577 0 1.126-.116 1.648-.346.521-.24.97-.56 1.348-.957ZM67.968 33.485c-1.531 0-2.93-.372-4.194-1.115a8.589 8.589 0 0 1-3.012-2.982c-.743-1.256-1.115-2.643-1.115-4.16 0-1.151.216-2.224.649-3.218a8.364 8.364 0 0 1 1.78-2.638 8.363 8.363 0 0 1 2.663-1.789 8.168 8.168 0 0 1 3.229-.644c1.53 0 2.923.372 4.177 1.115a8.37 8.37 0 0 1 3.012 2.998c.755 1.256 1.132 2.648 1.132 4.176 0 1.14-.217 2.208-.65 3.202a8.466 8.466 0 0 1-1.797 2.637 8.294 8.294 0 0 1-2.646 1.774 8.09 8.09 0 0 1-3.228.644Zm0-3.83c.81 0 1.536-.204 2.18-.613a4.362 4.362 0 0 0 1.514-1.617c.377-.67.566-1.402.566-2.197 0-.817-.194-1.56-.582-2.23a4.293 4.293 0 0 0-1.548-1.616 3.896 3.896 0 0 0-2.13-.612c-.799 0-1.52.204-2.164.612a4.46 4.46 0 0 0-1.53 1.632 4.49 4.49 0 0 0-.566 2.214c0 .827.194 1.575.582 2.245.388.67.904 1.203 1.548 1.6a4.11 4.11 0 0 0 2.13.582ZM89.263 28.352l3.661 1.868a8.596 8.596 0 0 1-2.879 2.37c-1.154.597-2.413.895-3.778.895-1.53 0-2.929-.372-4.193-1.115a8.59 8.59 0 0 1-3.013-2.982c-.743-1.256-1.115-2.643-1.115-4.16 0-1.151.217-2.224.65-3.218a8.364 8.364 0 0 1 1.78-2.638 8.364 8.364 0 0 1 2.663-1.789 8.167 8.167 0 0 1 3.228-.644c1.365 0 2.624.299 3.778.895a8.44 8.44 0 0 1 2.879 2.402l-3.661 1.852a4.059 4.059 0 0 0-1.381-.973 3.958 3.958 0 0 0-1.615-.345c-.798 0-1.52.209-2.163.628a4.462 4.462 0 0 0-1.531 1.632 4.403 4.403 0 0 0-.566 2.198 4.5 4.5 0 0 0 2.097 3.815 3.955 3.955 0 0 0 2.163.612c.577 0 1.126-.116 1.648-.346.521-.24.97-.56 1.348-.957ZM107.94 17.379H112v15.698h-4.06l-.183-1.947a5.315 5.315 0 0 1-1.814 1.711c-.744.43-1.626.644-2.646.644a9.064 9.064 0 0 1-3.462-.66 9.145 9.145 0 0 1-2.846-1.82 8.71 8.71 0 0 1-1.913-2.685 7.892 7.892 0 0 1-.683-3.265c0-1.12.216-2.171.65-3.155a8.115 8.115 0 0 1 1.846-2.59 8.708 8.708 0 0 1 2.73-1.743 8.77 8.77 0 0 1 3.328-.628c1.098 0 2.08.23 2.946.691a7.507 7.507 0 0 1 2.23 1.758l-.183-2.01Zm-4.743 12.417c.865 0 1.631-.204 2.296-.612a4.345 4.345 0 0 0 1.565-1.649c.377-.7.565-1.47.565-2.307 0-.848-.188-1.617-.565-2.308a4.28 4.28 0 0 0-1.581-1.664c-.666-.408-1.426-.612-2.28-.612-.855 0-1.637.21-2.347.628a4.738 4.738 0 0 0-1.68 1.648c-.411.69-.616 1.46-.616 2.308 0 .848.21 1.617.632 2.307a4.74 4.74 0 0 0 1.681 1.649c.71.408 1.487.612 2.33.612Z"></path>
    </g>
    <ellipse cx="16.8" cy="24.03" fill="#101010" rx="16.8" ry="16.546"></ellipse>
    <path fill="#fff" d="m21.959 27.923 3.641 1.812c-.888 1.137-2.017 2.046-3.387 2.727-1.357.682-2.832 1.023-4.424 1.023-1.802 0-3.446-.425-4.934-1.274a9.97 9.97 0 0 1-3.543-3.409C8.437 27.367 8 25.782 8 24.048c0-1.315.255-2.541.764-3.677a9.55 9.55 0 0 1 2.094-3.014 9.86 9.86 0 0 1 3.133-2.046 9.854 9.854 0 0 1 3.798-.735c1.592 0 3.067.34 4.424 1.022 1.37.682 2.5 1.597 3.387 2.745l-3.641 1.812a5.498 5.498 0 0 0-1.919-1.363 5.517 5.517 0 0 0-2.251-.485c-1.07 0-2.043.27-2.917.808a5.911 5.911 0 0 0-2.056 2.099 5.58 5.58 0 0 0-.744 2.834c0 1.017.255 1.962.764 2.835a5.958 5.958 0 0 0 2.055 2.08c.875.527 1.84.79 2.898.79.809 0 1.579-.167 2.31-.502a5.779 5.779 0 0 0 1.86-1.328Z"></path>
  </symbol>
  <symbol xmlns="http://www.w3.org/2000/svg" fill="none" viewBox="0 0 24 24" id="protect">
    <path stroke="#fff" stroke-linecap="round" stroke-linejoin="round" stroke-width="2" d="m9 12 2 2 4-4m5.618-4.016A11.955 11.955 0 0 1 12 2.944a11.955 11.955 0 0 1-8.618 3.04A12.02 12.02 0 0 0 3 9c0 5.591 3.824 10.29 9 11.622 5.176-1.332 9-6.03 9-11.622 0-1.042-.133-2.052-.382-3.016Z"></path>
  </symbol>
</svg>