<svg xmlns="http://www.w3.org/2000/svg" width="76" height="24" fill="none"><g fill-rule="evenodd" clip-path="url(#a)" clip-rule="evenodd"><path fill="#F90" d="M47.409 18.58c-4.366 3.317-10.694 5.087-16.142 5.087-7.64 0-14.518-2.912-19.72-7.756-.41-.38-.043-.9.447-.603 5.616 3.367 12.558 5.393 19.73 5.393 4.837 0 10.158-1.032 15.05-3.172.74-.323 1.358.499.635 1.052Z"/><path fill="#F90" d="M49.224 16.44c-.556-.734-3.69-.347-5.096-.175-.428.054-.493-.33-.108-.607 2.496-1.81 6.59-1.287 7.068-.68.477.61-.125 4.84-2.47 6.859-.36.31-.703.144-.542-.267.526-1.355 1.707-4.391 1.148-5.13Z"/><path fill="#1D1E25" d="M44.227 2.881V1.122c0-.266.196-.445.432-.445H52.3c.246 0 .442.182.442.445V2.63c-.003.252-.21.583-.576 1.105l-3.96 5.828c1.472-.037 3.025.188 4.36.964.3.175.382.431.405.684v1.877c0 .256-.275.556-.563.401-2.351-1.27-5.474-1.409-8.074.014-.265.148-.543-.149-.543-.405v-1.783c0-.286.003-.775.281-1.21l4.588-6.781h-3.993a.429.429 0 0 1-.441-.442ZM16.347 13.859h-2.325a.445.445 0 0 1-.416-.408V1.152c0-.246.2-.441.449-.441h2.168c.225.01.405.188.422.41V2.73h.042C17.253 1.176 18.316.45 19.748.45c1.455 0 2.365.725 3.019 2.279.562-1.554 1.84-2.279 3.211-2.279.975 0 2.04.415 2.692 1.345.735 1.035.585 2.538.585 3.856l-.003 7.762c0 .246-.2.445-.448.445h-2.322a.45.45 0 0 1-.419-.445V6.895c0-.519.046-1.813-.065-2.305-.174-.826-.694-1.058-1.367-1.058-.563 0-1.151.387-1.39 1.007-.239.62-.216 1.659-.216 2.356v6.519c0 .246-.2.445-.448.445h-2.322a.447.447 0 0 1-.419-.445l-.003-6.519c0-1.371.22-3.39-1.432-3.39-1.671 0-1.606 1.968-1.606 3.39v6.519c0 .246-.2.445-.448.445M59.322.451c3.45 0 5.318 3.054 5.318 6.936 0 3.752-2.064 6.728-5.318 6.728-3.388 0-5.232-3.054-5.232-6.859 0-3.829 1.867-6.805 5.232-6.805Zm.02 2.511c-1.714 0-1.822 2.407-1.822 3.906 0 1.504-.023 4.712 1.802 4.712 1.802 0 1.887-2.588 1.887-4.166 0-1.038-.042-2.278-.346-3.262-.262-.856-.782-1.19-1.521-1.19ZM69.114 13.859H66.8a.45.45 0 0 1-.419-.445l-.003-12.302a.444.444 0 0 1 .448-.401h2.155c.203.01.37.151.415.343v1.881h.043c.65-1.682 1.563-2.484 3.169-2.484 1.043 0 2.06.388 2.714 1.45.609.984.609 2.638.609 3.828v7.742a.45.45 0 0 1-.448.388H73.15a.446.446 0 0 1-.412-.388v-6.68c0-1.345.15-3.313-1.456-3.313-.565 0-1.085.39-1.344.984-.327.752-.37 1.5-.37 2.329v6.623a.453.453 0 0 1-.454.445M38.135 7.984c0 .934.023 1.712-.435 2.541-.37.674-.959 1.089-1.61 1.089-.892 0-1.416-.701-1.416-1.736 0-2.042 1.776-2.413 3.46-2.413v.52Zm2.344 5.841a.474.474 0 0 1-.549.057c-.772-.66-.912-.967-1.334-1.597-1.276 1.341-2.182 1.742-3.833 1.742-1.96 0-3.48-1.243-3.48-3.734 0-1.945 1.02-3.27 2.48-3.917 1.262-.573 3.024-.674 4.372-.832v-.31c0-.57.042-1.244-.285-1.736-.281-.441-.824-.623-1.305-.623-.886 0-1.674.468-1.867 1.439-.04.215-.193.428-.406.438l-2.253-.25c-.19-.043-.402-.202-.347-.502.517-2.817 2.99-3.667 5.2-3.667 1.132 0 2.61.31 3.503 1.193 1.131 1.089 1.023 2.542 1.023 4.122v3.735c0 1.122.452 1.614.877 2.22.147.217.18.476-.01.638a99.471 99.471 0 0 0-1.782 1.59l-.004-.006M7.651 7.984c0 .934.023 1.712-.435 2.542-.37.674-.955 1.088-1.609 1.088-.893 0-1.413-.7-1.413-1.736 0-2.042 1.776-2.413 3.457-2.413v.52Zm2.345 5.841a.474.474 0 0 1-.55.058c-.771-.661-.909-.968-1.334-1.598-1.275 1.341-2.178 1.742-3.833 1.742-1.955 0-3.48-1.243-3.48-3.734 0-1.945 1.024-3.27 2.48-3.916 1.262-.573 3.025-.674 4.372-.833v-.31c0-.57.043-1.244-.281-1.736-.285-.441-.827-.623-1.305-.623-.886 0-1.678.468-1.87 1.439-.04.216-.194.428-.403.438l-2.256-.25c-.19-.043-.4-.202-.347-.502.52-2.817 2.99-3.667 5.2-3.667 1.131 0 2.61.31 3.502 1.194 1.132 1.088 1.024 2.54 1.024 4.122v3.734c0 1.122.451 1.615.876 2.221.15.216.184.475-.006.637a99.83 99.83 0 0 0-1.783 1.591l-.006-.007"/></g><defs><clipPath id="a"><path fill="#fff" d="M.8.333h75.129v23.333H.799z"/></clipPath></defs></svg>