<svg xmlns="http://www.w3.org/2000/svg" width="75" height="22" fill="none"><g clip-path="url(#a)"><g fill="#F60"><path d="m55.415 21.283 6.132-6.735-6.132-6.736h6.47l3.037 3.272 2.925-3.272h6.244l-6.103 6.708 6.187 6.763h-6.497l-3.01-3.299-2.98 3.299h-6.273Z"/><path d="M55.415 4.792H48.47v3.02h6.945v4.55H48.47v4.178h6.945v4.743h-12.05V.063h12.05v4.73Z"/></g><path fill="#652C8F" d="M38.282.063v8.684h-.056c-1.125-1.264-2.531-1.704-4.163-1.704-3.341 0-5.859 2.22-6.742 5.157-1.008-3.235-3.607-5.217-7.46-5.217-3.13 0-5.601 1.373-6.89 3.61v-2.78H6.5v-3.02h7.06V.063H.735v21.22h5.767v-8.92h5.747a8.273 8.273 0 0 0-.263 2.097c0 4.427 3.46 7.532 7.875 7.532 3.712 0 6.159-1.703 7.453-4.81h-4.942c-.668.934-1.175 1.21-2.511 1.21-1.55 0-2.886-1.32-2.886-2.887h10.062c.437 3.516 3.238 6.548 7.083 6.548a4.957 4.957 0 0 0 4.106-2.144h.056v1.373h5.083V.063h-5.083ZM17.136 12.425c.32-1.348 1.39-2.229 2.725-2.229 1.47 0 2.484.854 2.751 2.23h-5.476Zm18.061 5.626c-1.873 0-3.038-1.707-3.038-3.489 0-1.904 1.013-3.736 3.038-3.736 2.1 0 2.937 1.832 2.937 3.736 0 1.807-.887 3.489-2.937 3.489Z"/></g><defs><clipPath id="a"><path fill="#fff" d="M.735.063h73.53v21.875H.734z"/></clipPath></defs></svg>