<svg xmlns="http://www.w3.org/2000/svg" width="90" height="20" fill="none"><g clip-path="url(#a)"><path fill="#737373" d="m31.918 11.44-.53 1.5h-.045c-.088-.339-.25-.853-.516-1.47l-2.843-7.128h-2.785v11.36h1.842v-7.01c0-.441 0-.94-.015-1.558-.015-.309-.044-.544-.059-.72h.044c.089.44.192.764.266.97l3.418 8.289h1.296L35.38 7.31c.073-.19.147-.573.22-.896h.045c-.044.838-.074 1.587-.088 2.043v7.2h1.96V4.313h-2.682l-2.918 7.128Zm7.455-3.924h1.915v8.142h-1.915V7.516Zm.972-3.439c-.324 0-.59.118-.81.323-.221.206-.34.47-.34.794 0 .309.119.573.34.779.22.206.486.309.81.309.324 0 .604-.118.81-.309.221-.206.34-.47.34-.779 0-.309-.119-.573-.34-.794-.191-.205-.471-.323-.81-.323Zm7.735 3.366a5.355 5.355 0 0 0-1.076-.118c-.869 0-1.665.191-2.328.573-.663.382-1.193.911-1.532 1.573-.353.676-.53 1.455-.53 2.351 0 .78.177 1.47.516 2.102.338.617.81 1.117 1.443 1.455.604.338 1.312.514 2.107.514.914 0 1.694-.191 2.313-.544l.015-.014V13.57l-.074.059c-.28.206-.604.382-.928.485a2.844 2.844 0 0 1-.913.176c-.766 0-1.37-.22-1.798-.705-.442-.47-.663-1.117-.663-1.925 0-.838.221-1.5.678-1.985.457-.485 1.06-.734 1.797-.734.62 0 1.253.205 1.827.617l.074.059V7.75l-.015-.014c-.25-.103-.53-.22-.913-.294Zm6.32-.06c-.471 0-.913.148-1.296.456-.324.265-.545.647-.737 1.103h-.015V7.516h-1.915v8.142h1.915v-4.16c0-.705.148-1.292.472-1.719.324-.44.736-.661 1.238-.661.176 0 .353.044.574.073.206.06.354.118.457.192l.073.058v-1.91l-.044-.015c-.132-.088-.398-.132-.722-.132Zm5.216-.043c-1.34 0-2.416.397-3.168 1.175-.766.78-1.134 1.852-1.134 3.204 0 1.264.383 2.293 1.12 3.042.736.735 1.738 1.117 2.99 1.117 1.312 0 2.358-.396 3.109-1.19.766-.794 1.134-1.852 1.134-3.16 0-1.293-.353-2.322-1.075-3.071-.692-.75-1.71-1.117-2.976-1.117Zm1.532 6.26c-.354.456-.913.677-1.606.677-.692 0-1.252-.221-1.65-.706-.398-.456-.59-1.117-.59-1.955 0-.867.207-1.528.59-1.998.398-.47.943-.706 1.636-.706.677 0 1.208.22 1.59.676.384.456.59 1.117.59 1.984-.03.882-.192 1.573-.56 2.028Zm6.792-2.704c-.604-.25-.987-.44-1.164-.602-.147-.147-.22-.353-.22-.618 0-.22.088-.44.309-.587.22-.147.471-.22.84-.22.323 0 .662.058.987.146.324.088.618.22.854.397l.074.059V7.678l-.044-.015a5.326 5.326 0 0 0-.87-.25 5.92 5.92 0 0 0-.943-.088c-.913 0-1.665.22-2.254.705-.59.456-.87 1.073-.87 1.793 0 .383.06.72.192 1 .133.279.325.544.59.764.265.206.648.44 1.178.661.442.191.781.338.987.456.207.117.34.25.442.353a.834.834 0 0 1 .118.455c0 .544-.412.808-1.252.808-.324 0-.663-.058-1.06-.19a4.104 4.104 0 0 1-1.076-.544l-.074-.06v1.867l.044.015c.28.132.62.22 1.032.323.412.074.78.133 1.105.133.987 0 1.797-.22 2.372-.706.589-.47.898-1.073.898-1.851 0-.544-.147-1.03-.471-1.397a5.978 5.978 0 0 0-1.724-1.014ZM75.19 7.34c-1.34 0-2.416.397-3.168 1.175-.751.78-1.134 1.852-1.134 3.204 0 1.264.383 2.293 1.12 3.042.736.735 1.738 1.117 2.99 1.117 1.311 0 2.358-.396 3.109-1.19.766-.794 1.134-1.852 1.134-3.16 0-1.293-.353-2.322-1.075-3.071-.693-.75-1.71-1.117-2.976-1.117Zm1.517 6.26c-.353.456-.913.677-1.606.677-.707 0-1.252-.221-1.65-.706-.398-.456-.589-1.117-.589-1.955 0-.867.206-1.528.59-1.998.397-.47.942-.706 1.635-.706.663 0 1.208.22 1.59.676.384.456.59 1.117.59 1.984 0 .882-.191 1.573-.56 2.028ZM89.48 9.09V7.516h-1.93v-2.41l-.059.015-1.827.543-.044.015v1.837h-2.888V6.487c0-.47.118-.837.324-1.072.207-.236.516-.353.899-.353.265 0 .545.059.855.19l.073.045v-1.66l-.044-.015c-.265-.089-.619-.147-1.076-.147-.574 0-1.075.132-1.532.352-.456.25-.795.588-1.046 1.044a3 3 0 0 0-.383 1.513v1.132h-1.34v1.558h1.34v6.584h1.93v-6.57h2.888v4.19c0 1.719.81 2.586 2.43 2.586.266 0 .546-.044.811-.089.28-.058.486-.132.604-.19l.015-.015v-1.573l-.074.059a1.247 1.247 0 0 1-.398.176 1.35 1.35 0 0 1-.383.06c-.383 0-.648-.089-.84-.31-.176-.205-.265-.543-.265-1.043V9.09h1.96Z"/><path fill="#F25022" d="M.506.52h9.031v9.01H.506V.52Z"/><path fill="#7FBA00" d="M10.48.52h9.032v9.01H10.48V.52Z"/><path fill="#00A4EF" d="M.506 10.47h9.031v9.01H.506v-9.01Z"/><path fill="#FFB900" d="M10.48 10.47h9.032v9.01H10.48v-9.01Z"/></g><defs><clipPath id="a"><path fill="#fff" d="M.506.52h88.988V19.48H.506z"/></clipPath></defs></svg>