<svg xmlns="http://www.w3.org/2000/svg" width="63" height="24" fill="none"><g clip-path="url(#a)"><path fill="#EE2E24" d="M51.4 22.675c5.867 0 10.64-4.81 10.64-10.722 0-5.915-4.773-10.721-10.64-10.721-5.867 0-10.64 4.806-10.64 10.721 0 5.912 4.773 10.722 10.64 10.722Zm0-14.545c2.091 0 3.794 1.715 3.794 3.822s-1.704 3.82-3.795 3.82c-2.092 0-3.792-1.713-3.792-3.821 0-2.11 1.702-3.823 3.792-3.823l.001.002ZM11.258 22.675c5.867 0 10.64-4.81 10.64-10.722 0-5.915-4.773-10.721-10.64-10.721-5.865 0-10.64 4.806-10.64 10.721 0 5.912 4.775 10.722 10.64 10.722Zm0-14.545c2.092 0 3.793 1.715 3.793 3.822s-1.701 3.82-3.793 3.82c-2.09 0-3.79-1.713-3.79-3.821 0-2.11 1.7-3.823 3.79-3.823v.002Zm20.065-.241-3.266-6.517h-7.648l7.143 14.256v6.712h7.544v-6.712l7.143-14.256h-7.651l-3.263 6.517h-.002Z"/></g><defs><clipPath id="a"><path fill="#fff" d="M.618.333h61.765v23.333H.618z"/></clipPath></defs></svg>