<svg width="0" height="0" class="hidden">
  <symbol xmlns="http://www.w3.org/2000/svg" fill="none" viewBox="0 0 76 24" id="airbnb">
    <g clip-path="url(#a)">
      <path fill="#FF385C" d="M21.71 16.87c-.118-.285-.23-.584-.348-.839l-.55-1.217-.022-.022a239.82 239.82 0 0 0-5.227-10.559l-.075-.146c-.185-.342-.37-.721-.564-1.071-.237-.416-.468-.86-.846-1.284a3.926 3.926 0 0 0-1.36-1.044 3.995 3.995 0 0 0-3.369 0 3.926 3.926 0 0 0-1.36 1.044c-.349.423-.609.868-.846 1.284-.186.379-.372.75-.565 1.093l-.074.146c-1.819 3.5-3.594 7.058-5.227 10.558l-.045.044c-.163.38-.356.773-.542 1.196a13.83 13.83 0 0 0-.356.839 4.876 4.876 0 0 0-.297 2.524 4.913 4.913 0 0 0 1.015 2.338 5.04 5.04 0 0 0 2.062 1.536 5.134 5.134 0 0 0 2.566.332 6.299 6.299 0 0 0 2.361-.802c.965-.532 1.893-1.305 2.933-2.421 1.04 1.116 1.99 1.889 2.933 2.428a6.307 6.307 0 0 0 2.985.839 5.096 5.096 0 0 0 3.316-1.204 4.927 4.927 0 0 0 1.696-3.047c.198-.85.131-1.74-.194-2.552v.007Zm-10.662 1.21c-1.277-1.604-2.109-3.077-2.39-4.338a3.725 3.725 0 0 1-.075-1.43c.052-.371.193-.7.386-.977.446-.634 1.225-1.028 2.08-1.028.405-.012.807.075 1.17.253.363.178.675.442.908.768.193.292.334.613.379.985.074.422.044.91-.074 1.429-.283 1.24-1.114 2.727-2.384 4.338Zm9.46 1.08c-.085.6-.328 1.169-.706 1.648-.378.48-.877.854-1.448 1.086a3.677 3.677 0 0 1-1.796.233 4.706 4.706 0 0 1-1.797-.612 11.562 11.562 0 0 1-2.696-2.26c1.56-1.897 2.503-3.625 2.86-5.163.17-.73.192-1.386.118-1.991a3.992 3.992 0 0 0-.639-1.604 3.96 3.96 0 0 0-1.455-1.24 4.04 4.04 0 0 0-1.879-.423c-1.373 0-2.598.627-3.34 1.656a3.737 3.737 0 0 0-.632 1.611 4.717 4.717 0 0 0 .119 1.99c.356 1.54 1.322 3.29 2.859 5.178a10.587 10.587 0 0 1-2.696 2.275 4.73 4.73 0 0 1-1.797.605 3.582 3.582 0 0 1-2.596-.686 3.459 3.459 0 0 1-1.354-2.282 3.779 3.779 0 0 1 .216-1.823c.074-.233.185-.466.304-.743.163-.38.356-.773.542-1.167l.03-.051A236.724 236.724 0 0 1 7.9 4.89l.074-.146c.186-.35.371-.722.565-1.072.193-.372.4-.73.668-1.021.231-.271.52-.49.847-.639a2.503 2.503 0 0 1 2.932.639c.26.292.475.649.668 1.02.186.35.372.73.565 1.073l.074.146a286.9 286.9 0 0 1 5.198 10.507l.022.022c.193.379.356.802.542 1.166.119.285.237.51.312.751.14.657.215 1.24.14 1.823Zm10.335-1.24a3.786 3.786 0 0 1-1.621-.339 3.72 3.72 0 0 1-1.312-.996 4.724 4.724 0 0 1-1.188-3.266 5.02 5.02 0 0 1 1.233-3.34c.373-.43.838-.774 1.361-1.008a3.997 3.997 0 0 1 1.668-.348 3.24 3.24 0 0 1 1.558.351c.48.245.89.606 1.19 1.049l.074-1.145h2.168v8.808h-2.175l-.075-1.283c-.308.473-.735.86-1.24 1.126-.504.266-1.069.4-1.64.39Zm.565-2.1c.43 0 .809-.117 1.165-.328.327-.234.594-.54.802-.912.186-.372.282-.816.282-1.312a2.455 2.455 0 0 0-.247-1.25 2.507 2.507 0 0 0-.844-.967 2.22 2.22 0 0 0-2.317 0c-.326.233-.594.54-.802.912a2.88 2.88 0 0 0-.282 1.312c-.029.43.057.861.248 1.25.191.388.482.721.844.967.349.211.727.328 1.15.328ZM39.687 6.5c0 .255-.045.489-.164.678-.119.182-.282.35-.497.467-.216.116-.446.16-.683.16-.238 0-.476-.044-.69-.16a1.356 1.356 0 0 1-.498-.467 1.308 1.308 0 0 1-.164-.678c0-.262.052-.496.164-.678.118-.219.29-.35.497-.467a1.42 1.42 0 0 1 .69-.167c.237-.006.47.05.679.16.208.109.384.27.51.467.108.212.161.447.156.685Zm-2.525 11.156V8.864h2.361v8.808h-2.368l.007-.015Zm8.672-6.49v.03c-.11-.051-.26-.073-.37-.095-.15-.03-.268-.03-.41-.03-.66 0-1.157.19-1.484.584-.357.401-.52.963-.52 1.685v4.324h-2.368V8.856h2.175l.074 1.335c.238-.467.52-.817.921-1.08a2.333 2.333 0 0 1 1.344-.364c.17 0 .334.014.475.044.074.021.119.021.163.043v2.334Zm.95 6.49V5.247h2.362v4.74a3.729 3.729 0 0 1 1.188-1.007 3.79 3.79 0 0 1 2.426-.291c.82.173 1.555.612 2.088 1.246a4.724 4.724 0 0 1 1.188 3.274 5.02 5.02 0 0 1-1.232 3.34c-.373.43-.838.774-1.362 1.008a3.997 3.997 0 0 1-1.667.348 3.241 3.241 0 0 1-1.558-.351 3.174 3.174 0 0 1-1.19-1.049l-.074 1.145-2.168.022v-.015Zm4.567-1.837c.424 0 .802-.117 1.159-.328.326-.234.594-.54.802-.912.193-.372.282-.816.282-1.312 0-.489-.09-.934-.282-1.306a2.75 2.75 0 0 0-.802-.911 2.22 2.22 0 0 0-2.317 0c-.334.233-.594.54-.81.912a2.88 2.88 0 0 0-.282 1.312c-.029.43.057.861.248 1.25.192.388.482.721.844.967.349.211.728.328 1.158.328Zm5.577 1.845V8.856h2.175l.074 1.145a2.92 2.92 0 0 1 1.123-1.04 2.985 2.985 0 0 1 1.506-.338 3.086 3.086 0 0 1 1.691.47c.504.316.903.771 1.145 1.31.26.553.401 1.239.401 2.004v5.28h-2.369v-4.974c0-.612-.14-1.093-.423-1.45-.282-.35-.668-.54-1.158-.54-.357 0-.668.073-.943.233-.26.168-.475.38-.639.678a1.94 1.94 0 0 0-.237.985v5.046h-2.346Zm9.296 0V5.24h2.368v4.74c.321-.426.738-.772 1.22-1.011a3.52 3.52 0 0 1 1.55-.368 3.785 3.785 0 0 1 1.621.339 3.72 3.72 0 0 1 1.312.995 4.738 4.738 0 0 1 1.18 3.267 5.013 5.013 0 0 1-1.232 3.34 3.93 3.93 0 0 1-1.362 1.008 3.997 3.997 0 0 1-1.668.348 3.241 3.241 0 0 1-1.558-.351 3.173 3.173 0 0 1-1.189-1.05l-.067 1.146-2.175.022Zm4.588-1.845c.43 0 .81-.117 1.159-.328.334-.234.594-.54.809-.912.186-.372.282-.816.282-1.312a2.455 2.455 0 0 0-.248-1.25 2.507 2.507 0 0 0-.843-.967 2.22 2.22 0 0 0-2.317 0c-.327.233-.594.54-.802.912a2.606 2.606 0 0 0-.282 1.312c-.029.43.056.861.248 1.25.19.388.482.721.843.967a2.12 2.12 0 0 0 1.151.328Z"></path>
    </g>
    <defs>
      <clipPath id="a">
        <path fill="#fff" d="M0 .333h75.735v23.333H0z"></path>
      </clipPath>
    </defs>
  </symbol>
  <symbol xmlns="http://www.w3.org/2000/svg" fill="none" viewBox="0 0 76 24" id="amazon">
    <g fill-rule="evenodd" clip-path="url(#a)" clip-rule="evenodd">
      <path fill="#F90" d="M47.409 18.58c-4.366 3.317-10.694 5.087-16.142 5.087-7.64 0-14.518-2.912-19.72-7.756-.41-.38-.043-.9.447-.603 5.616 3.367 12.558 5.393 19.73 5.393 4.837 0 10.158-1.032 15.05-3.172.74-.323 1.358.499.635 1.052Z"></path>
      <path fill="#F90" d="M49.224 16.44c-.556-.734-3.69-.347-5.096-.175-.428.054-.493-.33-.108-.607 2.496-1.81 6.59-1.287 7.068-.68.477.61-.125 4.84-2.47 6.859-.36.31-.703.144-.542-.267.526-1.355 1.707-4.391 1.148-5.13Z"></path>
      <path fill="#1D1E25" d="M44.227 2.881V1.122c0-.266.196-.445.432-.445H52.3c.246 0 .442.182.442.445V2.63c-.003.252-.21.583-.576 1.105l-3.96 5.828c1.472-.037 3.025.188 4.36.964.3.175.382.431.405.684v1.877c0 .256-.275.556-.563.401-2.351-1.27-5.474-1.409-8.074.014-.265.148-.543-.149-.543-.405v-1.783c0-.286.003-.775.281-1.21l4.588-6.781h-3.993a.429.429 0 0 1-.441-.442ZM16.347 13.859h-2.325a.445.445 0 0 1-.416-.408V1.152c0-.246.2-.441.449-.441h2.168c.225.01.405.188.422.41V2.73h.042C17.253 1.176 18.316.45 19.748.45c1.455 0 2.365.725 3.019 2.279.562-1.554 1.84-2.279 3.211-2.279.975 0 2.04.415 2.692 1.345.735 1.035.585 2.538.585 3.856l-.003 7.762c0 .246-.2.445-.448.445h-2.322a.45.45 0 0 1-.419-.445V6.895c0-.519.046-1.813-.065-2.305-.174-.826-.694-1.058-1.367-1.058-.563 0-1.151.387-1.39 1.007-.239.62-.216 1.659-.216 2.356v6.519c0 .246-.2.445-.448.445h-2.322a.447.447 0 0 1-.419-.445l-.003-6.519c0-1.371.22-3.39-1.432-3.39-1.671 0-1.606 1.968-1.606 3.39v6.519c0 .246-.2.445-.448.445M59.322.451c3.45 0 5.318 3.054 5.318 6.936 0 3.752-2.064 6.728-5.318 6.728-3.388 0-5.232-3.054-5.232-6.859 0-3.829 1.867-6.805 5.232-6.805Zm.02 2.511c-1.714 0-1.822 2.407-1.822 3.906 0 1.504-.023 4.712 1.802 4.712 1.802 0 1.887-2.588 1.887-4.166 0-1.038-.042-2.278-.346-3.262-.262-.856-.782-1.19-1.521-1.19ZM69.114 13.859H66.8a.45.45 0 0 1-.419-.445l-.003-12.302a.444.444 0 0 1 .448-.401h2.155c.203.01.37.151.415.343v1.881h.043c.65-1.682 1.563-2.484 3.169-2.484 1.043 0 2.06.388 2.714 1.45.609.984.609 2.638.609 3.828v7.742a.45.45 0 0 1-.448.388H73.15a.446.446 0 0 1-.412-.388v-6.68c0-1.345.15-3.313-1.456-3.313-.565 0-1.085.39-1.344.984-.327.752-.37 1.5-.37 2.329v6.623a.453.453 0 0 1-.454.445M38.135 7.984c0 .934.023 1.712-.435 2.541-.37.674-.959 1.089-1.61 1.089-.892 0-1.416-.701-1.416-1.736 0-2.042 1.776-2.413 3.46-2.413v.52Zm2.344 5.841a.474.474 0 0 1-.549.057c-.772-.66-.912-.967-1.334-1.597-1.276 1.341-2.182 1.742-3.833 1.742-1.96 0-3.48-1.243-3.48-3.734 0-1.945 1.02-3.27 2.48-3.917 1.262-.573 3.024-.674 4.372-.832v-.31c0-.57.042-1.244-.285-1.736-.281-.441-.824-.623-1.305-.623-.886 0-1.674.468-1.867 1.439-.04.215-.193.428-.406.438l-2.253-.25c-.19-.043-.402-.202-.347-.502.517-2.817 2.99-3.667 5.2-3.667 1.132 0 2.61.31 3.503 1.193 1.131 1.089 1.023 2.542 1.023 4.122v3.735c0 1.122.452 1.614.877 2.22.147.217.18.476-.01.638a99.471 99.471 0 0 0-1.782 1.59l-.004-.006M7.651 7.984c0 .934.023 1.712-.435 2.542-.37.674-.955 1.088-1.609 1.088-.893 0-1.413-.7-1.413-1.736 0-2.042 1.776-2.413 3.457-2.413v.52Zm2.345 5.841a.474.474 0 0 1-.55.058c-.771-.661-.909-.968-1.334-1.598-1.275 1.341-2.178 1.742-3.833 1.742-1.955 0-3.48-1.243-3.48-3.734 0-1.945 1.024-3.27 2.48-3.916 1.262-.573 3.025-.674 4.372-.833v-.31c0-.57.043-1.244-.281-1.736-.285-.441-.827-.623-1.305-.623-.886 0-1.678.468-1.87 1.439-.04.216-.194.428-.403.438l-2.256-.25c-.19-.043-.4-.202-.347-.502.52-2.817 2.99-3.667 5.2-3.667 1.131 0 2.61.31 3.502 1.194 1.132 1.088 1.024 2.54 1.024 4.122v3.734c0 1.122.451 1.615.876 2.221.15.216.184.475-.006.637a99.83 99.83 0 0 0-1.783 1.591l-.006-.007"></path>
    </g>
    <defs>
      <clipPath id="a">
        <path fill="#fff" d="M.8.333h75.129v23.333H.799z"></path>
      </clipPath>
    </defs>
  </symbol>
  <symbol xmlns="http://www.w3.org/2000/svg" fill="none" viewBox="0 0 75 22" id="fed-ex">
    <g clip-path="url(#a)">
      <g fill="#F60">
        <path d="m55.415 21.283 6.132-6.735-6.132-6.736h6.47l3.037 3.272 2.925-3.272h6.244l-6.103 6.708 6.187 6.763h-6.497l-3.01-3.299-2.98 3.299h-6.273Z"></path>
        <path d="M55.415 4.792H48.47v3.02h6.945v4.55H48.47v4.178h6.945v4.743h-12.05V.063h12.05v4.73Z"></path>
      </g>
      <path fill="#652C8F" d="M38.282.063v8.684h-.056c-1.125-1.264-2.531-1.704-4.163-1.704-3.341 0-5.859 2.22-6.742 5.157-1.008-3.235-3.607-5.217-7.46-5.217-3.13 0-5.601 1.373-6.89 3.61v-2.78H6.5v-3.02h7.06V.063H.735v21.22h5.767v-8.92h5.747a8.273 8.273 0 0 0-.263 2.097c0 4.427 3.46 7.532 7.875 7.532 3.712 0 6.159-1.703 7.453-4.81h-4.942c-.668.934-1.175 1.21-2.511 1.21-1.55 0-2.886-1.32-2.886-2.887h10.062c.437 3.516 3.238 6.548 7.083 6.548a4.957 4.957 0 0 0 4.106-2.144h.056v1.373h5.083V.063h-5.083ZM17.136 12.425c.32-1.348 1.39-2.229 2.725-2.229 1.47 0 2.484.854 2.751 2.23h-5.476Zm18.061 5.626c-1.873 0-3.038-1.707-3.038-3.489 0-1.904 1.013-3.736 3.038-3.736 2.1 0 2.937 1.832 2.937 3.736 0 1.807-.887 3.489-2.937 3.489Z"></path>
    </g>
    <defs>
      <clipPath id="a">
        <path fill="#fff" d="M.735.063h73.53v21.875H.734z"></path>
      </clipPath>
    </defs>
  </symbol>
  <symbol xmlns="http://www.w3.org/2000/svg" fill="none" viewBox="0 0 71 24" id="google">
    <g clip-path="url(#a)">
      <path fill="#EA4335" d="M30.667 12.3c0 3.238-2.565 5.625-5.714 5.625-3.148 0-5.714-2.387-5.714-5.626 0-3.261 2.566-5.625 5.714-5.625 3.149 0 5.714 2.364 5.714 5.625Zm-2.5 0c0-2.025-1.488-3.41-3.214-3.41-1.725 0-3.212 1.385-3.212 3.41 0 2.003 1.487 3.408 3.212 3.408 1.726 0 3.213-1.408 3.213-3.409Z"></path>
      <path fill="#FBBC05" d="M42.995 12.3c0 3.238-2.566 5.625-5.714 5.625-3.149 0-5.715-2.387-5.715-5.626 0-3.259 2.566-5.625 5.715-5.625 3.148 0 5.714 2.364 5.714 5.625Zm-2.502 0c0-2.025-1.487-3.41-3.212-3.41-1.726 0-3.213 1.385-3.213 3.41 0 2.003 1.487 3.408 3.213 3.408 1.725 0 3.212-1.408 3.212-3.409Z"></path>
      <path fill="#4285F4" d="M54.807 7.014v10.099c0 4.154-2.48 5.851-5.413 5.851-2.761 0-4.423-1.823-5.05-3.315l2.179-.895c.387.915 1.338 1.996 2.868 1.996 1.878 0 3.04-1.144 3.04-3.297v-.81h-.087c-.56.683-1.638 1.279-2.999 1.279-2.848 0-5.457-2.45-5.457-5.603 0-3.175 2.609-5.645 5.457-5.645 1.358 0 2.437.596 3 1.258h.087v-.916h2.375v-.002Zm-2.198 5.305c0-1.98-1.338-3.429-3.04-3.429-1.726 0-3.172 1.449-3.172 3.43 0 1.96 1.446 3.388 3.171 3.388 1.703 0 3.041-1.428 3.041-3.389Z"></path>
      <path fill="#34A853" d="M58.724 1.094V17.58h-2.44V1.094h2.44Z"></path>
      <path fill="#EA4335" d="m68.231 14.15 1.942 1.279c-.627.916-2.137 2.493-4.746 2.493-3.236 0-5.653-2.47-5.653-5.625 0-3.346 2.438-5.626 5.373-5.626 2.956 0 4.402 2.324 4.874 3.579l.26.64-7.615 3.114c.583 1.128 1.49 1.704 2.76 1.704 1.275 0 2.158-.619 2.805-1.557Zm-5.976-2.023 5.09-2.088c-.28-.702-1.122-1.192-2.113-1.192-1.271 0-3.041 1.109-2.977 3.28Z"></path>
      <path fill="#4285F4" d="M10.005 10.836V8.449h8.143c.08.416.12.908.12 1.44 0 1.791-.495 4.005-2.092 5.583-1.554 1.598-3.539 2.45-6.169 2.45-4.874 0-8.973-3.921-8.973-8.735S5.133.452 10.007.452c2.697 0 4.618 1.045 6.061 2.407l-1.705 1.684c-1.035-.958-2.437-1.704-4.358-1.704-3.56 0-6.344 2.833-6.344 6.348 0 3.515 2.784 6.348 6.344 6.348 2.308 0 3.623-.915 4.466-1.747.683-.675 1.132-1.639 1.31-2.955l-5.776.003Z"></path>
    </g>
    <defs>
      <clipPath id="a">
        <path fill="#fff" d="M.941.333h69.853v23.333H.941z"></path>
      </clipPath>
    </defs>
  </symbol>
  <symbol xmlns="http://www.w3.org/2000/svg" fill="none" viewBox="0 0 90 20" id="microsoft">
    <g clip-path="url(#a)">
      <path fill="#737373" d="m31.918 11.44-.53 1.5h-.045c-.088-.339-.25-.853-.516-1.47l-2.843-7.128h-2.785v11.36h1.842v-7.01c0-.441 0-.94-.015-1.558-.015-.309-.044-.544-.059-.72h.044c.089.44.192.764.266.97l3.418 8.289h1.296L35.38 7.31c.073-.19.147-.573.22-.896h.045c-.044.838-.074 1.587-.088 2.043v7.2h1.96V4.313h-2.682l-2.918 7.128Zm7.455-3.924h1.915v8.142h-1.915V7.516Zm.972-3.439c-.324 0-.59.118-.81.323-.221.206-.34.47-.34.794 0 .309.119.573.34.779.22.206.486.309.81.309.324 0 .604-.118.81-.309.221-.206.34-.47.34-.779 0-.309-.119-.573-.34-.794-.191-.205-.471-.323-.81-.323Zm7.735 3.366a5.355 5.355 0 0 0-1.076-.118c-.869 0-1.665.191-2.328.573-.663.382-1.193.911-1.532 1.573-.353.676-.53 1.455-.53 2.351 0 .78.177 1.47.516 2.102.338.617.81 1.117 1.443 1.455.604.338 1.312.514 2.107.514.914 0 1.694-.191 2.313-.544l.015-.014V13.57l-.074.059c-.28.206-.604.382-.928.485a2.844 2.844 0 0 1-.913.176c-.766 0-1.37-.22-1.798-.705-.442-.47-.663-1.117-.663-1.925 0-.838.221-1.5.678-1.985.457-.485 1.06-.734 1.797-.734.62 0 1.253.205 1.827.617l.074.059V7.75l-.015-.014c-.25-.103-.53-.22-.913-.294Zm6.32-.06c-.471 0-.913.148-1.296.456-.324.265-.545.647-.737 1.103h-.015V7.516h-1.915v8.142h1.915v-4.16c0-.705.148-1.292.472-1.719.324-.44.736-.661 1.238-.661.176 0 .353.044.574.073.206.06.354.118.457.192l.073.058v-1.91l-.044-.015c-.132-.088-.398-.132-.722-.132Zm5.216-.043c-1.34 0-2.416.397-3.168 1.175-.766.78-1.134 1.852-1.134 3.204 0 1.264.383 2.293 1.12 3.042.736.735 1.738 1.117 2.99 1.117 1.312 0 2.358-.396 3.109-1.19.766-.794 1.134-1.852 1.134-3.16 0-1.293-.353-2.322-1.075-3.071-.692-.75-1.71-1.117-2.976-1.117Zm1.532 6.26c-.354.456-.913.677-1.606.677-.692 0-1.252-.221-1.65-.706-.398-.456-.59-1.117-.59-1.955 0-.867.207-1.528.59-1.998.398-.47.943-.706 1.636-.706.677 0 1.208.22 1.59.676.384.456.59 1.117.59 1.984-.03.882-.192 1.573-.56 2.028Zm6.792-2.704c-.604-.25-.987-.44-1.164-.602-.147-.147-.22-.353-.22-.618 0-.22.088-.44.309-.587.22-.147.471-.22.84-.22.323 0 .662.058.987.146.324.088.618.22.854.397l.074.059V7.678l-.044-.015a5.326 5.326 0 0 0-.87-.25 5.92 5.92 0 0 0-.943-.088c-.913 0-1.665.22-2.254.705-.59.456-.87 1.073-.87 1.793 0 .383.06.72.192 1 .133.279.325.544.59.764.265.206.648.44 1.178.661.442.191.781.338.987.456.207.117.34.25.442.353a.834.834 0 0 1 .118.455c0 .544-.412.808-1.252.808-.324 0-.663-.058-1.06-.19a4.104 4.104 0 0 1-1.076-.544l-.074-.06v1.867l.044.015c.28.132.62.22 1.032.323.412.074.78.133 1.105.133.987 0 1.797-.22 2.372-.706.589-.47.898-1.073.898-1.851 0-.544-.147-1.03-.471-1.397a5.978 5.978 0 0 0-1.724-1.014ZM75.19 7.34c-1.34 0-2.416.397-3.168 1.175-.751.78-1.134 1.852-1.134 3.204 0 1.264.383 2.293 1.12 3.042.736.735 1.738 1.117 2.99 1.117 1.311 0 2.358-.396 3.109-1.19.766-.794 1.134-1.852 1.134-3.16 0-1.293-.353-2.322-1.075-3.071-.693-.75-1.71-1.117-2.976-1.117Zm1.517 6.26c-.353.456-.913.677-1.606.677-.707 0-1.252-.221-1.65-.706-.398-.456-.589-1.117-.589-1.955 0-.867.206-1.528.59-1.998.397-.47.942-.706 1.635-.706.663 0 1.208.22 1.59.676.384.456.59 1.117.59 1.984 0 .882-.191 1.573-.56 2.028ZM89.48 9.09V7.516h-1.93v-2.41l-.059.015-1.827.543-.044.015v1.837h-2.888V6.487c0-.47.118-.837.324-1.072.207-.236.516-.353.899-.353.265 0 .545.059.855.19l.073.045v-1.66l-.044-.015c-.265-.089-.619-.147-1.076-.147-.574 0-1.075.132-1.532.352-.456.25-.795.588-1.046 1.044a3 3 0 0 0-.383 1.513v1.132h-1.34v1.558h1.34v6.584h1.93v-6.57h2.888v4.19c0 1.719.81 2.586 2.43 2.586.266 0 .546-.044.811-.089.28-.058.486-.132.604-.19l.015-.015v-1.573l-.074.059a1.247 1.247 0 0 1-.398.176 1.35 1.35 0 0 1-.383.06c-.383 0-.648-.089-.84-.31-.176-.205-.265-.543-.265-1.043V9.09h1.96Z"></path>
      <path fill="#F25022" d="M.506.52h9.031v9.01H.506V.52Z"></path>
      <path fill="#7FBA00" d="M10.48.52h9.032v9.01H10.48V.52Z"></path>
      <path fill="#00A4EF" d="M.506 10.47h9.031v9.01H.506v-9.01Z"></path>
      <path fill="#FFB900" d="M10.48 10.47h9.032v9.01H10.48v-9.01Z"></path>
    </g>
    <defs>
      <clipPath id="a">
        <path fill="#fff" d="M.506.52h88.988V19.48H.506z"></path>
      </clipPath>
    </defs>
  </symbol>
  <symbol xmlns="http://www.w3.org/2000/svg" fill="none" viewBox="0 0 72 26" id="ola">
    <g fill-rule="evenodd" clip-path="url(#a)" clip-rule="evenodd">
      <path fill="#1D1E25" d="m63.262 12.155-4.55 7.9-3.88.016 8.43-14.87 8.4 14.87h-3.943l-4.457-7.917v.001Zm-12.25 4.477h4.347l-2.018 3.439h-5.666l.015-4.188V5.293h3.338l-.015 11.339h-.001ZM39.089 5.293c4.145.016 7.499 3.316 7.483 7.396-.015 4.065-3.369 7.366-7.515 7.366-4.13-.015-7.483-3.316-7.483-7.396.015-4.065 3.37-7.366 7.515-7.366Zm-.015 11.324c2.22 0 4.004-1.758 4.004-3.928.016-2.17-1.785-3.943-3.989-3.943-2.205-.015-4.006 1.758-4.006 3.928-.015 2.17 1.785 3.943 3.99 3.943Zm-13.679-5.102c-.046-.612-.202-1.421-.435-2.2a11.182 11.182 0 0 0-2.437-4.325c-.59-.642-1.258-1.238-2.252-1.941a37.883 37.883 0 0 1-2.235-1.207c-.482-.275-1.056-.612-1.817-.856a13.02 13.02 0 0 0-2.748-.351c-.9-.031-1.801.046-2.67.214-.917.152-1.678.396-2.687.641-2.283.993-4.052 2.491-5.574 4.478-5.31 7.473-.512 17.94 8.354 19.178 1.46.2 2.919.122 4.3-.198l.978-.26a.287.287 0 0 1 .109-.03l1.118-.428c.062-.031.108-.047.17-.077l.467-.214a12.735 12.735 0 0 0 2.5-1.635A14.284 14.284 0 0 1 18.267 24l.047.031c.156-.046.295-.092.45-.122 0 0 0 .244-.03.198-.249.184.14.016.636-.245.497-.26.978-.58 1.412-.947.638-.535 1.196-1.116 1.988-2.063.807-1.421 1.817-2.66 2.283-4.325.155-.443.294-.962.388-1.498a9.686 9.686 0 0 0 .155-1.65 12.674 12.674 0 0 0-.202-1.864Zm-11.49 12.562c2.718-.429 5-1.94 6.863-4.004.513-.75.916-1.437 1.413-2.186.62-1.528.575-2.888.776-3.85.25-1.743-.341-3.149-.838-4.646-.76-1.742-1.77-3.04-3.54-4.05C14.107 2.561 8.021 3.34 5.118 7.496c-.015 0-.094.107-.249.32.202-.855.715-1.359 1.227-1.849 1.522-1.252 3.292-2.246 5.31-2.734 2.283-.245 4.549 0 6.583.993 3.043 1.741 5.062 4.478 5.574 7.716v2.996c-.637 4.906-4.829 8.635-9.657 9.139ZM25.07 12.92C24.96 5.739 17.865.894 10.956 1.873c-2.019.503-4.224 1.512-5.792 2.918-.76.504-1.117 1.437-1.878 2.185C.242 11.454.77 17.185 4.558 20.67a14.72 14.72 0 0 0 1.553 1.345c-3.167-1.912-4.596-4.8-5.092-8.314 0-1.254.248-2.492.512-3.744C3.3 4.47 8.875.48 14.946 1.49c1.01.245 2.019.505 3.044.75 1.273.503 2.53 1.252 3.54 2.246 1.009.993 1.77 2.246 2.53 3.483.513.994.762 2.247 1.01 3.24.046.566.046 1.147 0 1.713v-.001Z"></path>
      <path fill="#fff" d="M18.765 13.028c0 3.087-2.577 5.594-5.76 5.594-3.182 0-5.76-2.507-5.76-5.594s2.577-5.593 5.76-5.593 5.76 2.506 5.76 5.594v-.001Z"></path>
      <path fill="#D7DF23" d="M18.797 12.08c-.078-.427-.202-.763-.326-1.237-.497-1.04-1.227-1.849-2.19-2.537-3.601-2.399-8.555-.091-9.082 4.005-.201 1.62.373 3.178 1.398 4.37-.311-.32-.652-.656-.885-1.039l-.03.031c.03.091.154.153.185.244 0 0-.124 0-.093-.015-.093-.106-.015.062.124.29.124.23.28.444.466.642.264.29.543.55 1.009.902.684.351 1.289.81 2.08 1.024.218.062.466.122.715.168.264.046.512.062.792.062.264 0 .543-.031.885-.093.352-.042.7-.113 1.04-.213.76-.23 1.46-.628 2.05-1.162.295-.275.714-.626 1.04-1.085.264-.52.295-.78.42-1.009.123-.23.278-.489.387-.84.09-.418.141-.842.156-1.269-.016-.427-.046-.84-.14-1.238h-.001ZM15.101 9.24c.528.305.606.35.326.152.405.092.653.321.901.55.606.688 1.102 1.498 1.35 2.43.14 1.054.031 2.109-.418 3.042-.807 1.42-2.096 2.368-3.634 2.628-.17 0-.356 0-.528.015.435-.077.715-.352 1.507-.642.853-.305 1.816-1.726 2.283-2.552 1.365-2.247-.25-4.325-1.787-5.623Zm-2.918 8.832c-2.36-.244-4.177-2.185-4.425-4.432.217 1.254.962 2.216 1.971 3.072.358.23.885.55 1.243.78.605.229.962.474 1.552.58h-.341Zm6.35-4.08c-.108.474-.217.932-.326 1.406-.233.581-.575 1.177-1.04 1.65-.466.475-1.056.841-1.646 1.193-.466.244-1.056.366-1.537.488-.28.03-.606-.092-.886-.106 3.448-.093 5.807-3.316 5.295-6.51-.249-.932-.745-1.743-1.35-2.552-.25-.352-.731-.566-1.088-.918-2.158-1.36-5.014-1.084-6.644.704a7.421 7.421 0 0 0-.638.748c.87-1.284 2.268-2.185 3.944-2.445.59-.015 1.196.092 1.786.2 2.608.793 4.55 3.33 4.13 6.143Z"></path>
    </g>
    <defs>
      <clipPath id="a">
        <path fill="#fff" d="M.259.604H71.74v24.792H.259z"></path>
      </clipPath>
    </defs>
  </symbol>
  <symbol xmlns="http://www.w3.org/2000/svg" fill="none" viewBox="0 0 63 24" id="oyo">
    <g clip-path="url(#a)">
      <path fill="#EE2E24" d="M51.4 22.675c5.867 0 10.64-4.81 10.64-10.722 0-5.915-4.773-10.721-10.64-10.721-5.867 0-10.64 4.806-10.64 10.721 0 5.912 4.773 10.722 10.64 10.722Zm0-14.545c2.091 0 3.794 1.715 3.794 3.822s-1.704 3.82-3.795 3.82c-2.092 0-3.792-1.713-3.792-3.821 0-2.11 1.702-3.823 3.792-3.823l.001.002ZM11.258 22.675c5.867 0 10.64-4.81 10.64-10.722 0-5.915-4.773-10.721-10.64-10.721-5.865 0-10.64 4.806-10.64 10.721 0 5.912 4.775 10.722 10.64 10.722Zm0-14.545c2.092 0 3.793 1.715 3.793 3.822s-1.701 3.82-3.793 3.82c-2.09 0-3.79-1.713-3.79-3.821 0-2.11 1.7-3.823 3.79-3.823v.002Zm20.065-.241-3.266-6.517h-7.648l7.143 14.256v6.712h7.544v-6.712l7.143-14.256h-7.651l-3.263 6.517h-.002Z"></path>
    </g>
    <defs>
      <clipPath id="a">
        <path fill="#fff" d="M.618.333h61.765v23.333H.618z"></path>
      </clipPath>
    </defs>
  </symbol>
  <symbol xmlns="http://www.w3.org/2000/svg" fill="none" viewBox="0 0 89 22" id="walmart">
    <g clip-path="url(#a)">
      <path fill="#041E42" d="M31.782 8.054V9.21h.036c.422-.62 1.121-1.35 2.672-1.35 1.207 0 2.132.607 2.529 1.524h.036a3.732 3.732 0 0 1 1.162-1.062c.516-.295 1.088-.464 1.81-.464 1.634 0 3.08 1.05 3.08 3.697v5.02h-2.49v-4.67c0-1.341-.49-2.117-1.51-2.117-.746 0-1.29.466-1.496 1.04a2.185 2.185 0 0 0-.104.69v5.06h-2.49v-4.862c0-1.14-.472-1.93-1.477-1.93-.804 0-1.309.588-1.515 1.093a1.866 1.866 0 0 0-.116.696v5h-2.493V8.054h2.366Zm24.178 0V9.66h.07c.456-1.228 1.542-1.8 2.495-1.8.24 0 .372.019.565.055v2.232c-.23-.031-.441-.062-.739-.062-1.08 0-1.832.584-2.022 1.498a2.95 2.95 0 0 0-.055.63v4.364h-2.556V8.054h2.242Zm6.6-2.824v2.683h2.16v2.17h-2.16v3.203c0 1.037.284 1.539 1.127 1.539.397 0 .689-.046.942-.105l.033 1.8c-.339.117-1.06.245-1.793.245-.862 0-1.581-.28-2.02-.712-.5-.494-.732-1.303-.732-2.455V5.23h2.443ZM27.68 16.576h-2.479V5.23h2.48v11.346Zm-6.61-3.044c0 .156-.014.32-.061.46-.193.592-.851 1.091-1.672 1.091-.686 0-1.232-.36-1.232-1.126 0-1.17 1.389-1.495 2.967-1.488v1.063h-.002Zm2.476-2.04c0-1.933-.887-3.63-3.887-3.63-1.54 0-2.763.402-3.43.76l.488 1.551c.609-.358 1.581-.652 2.501-.652 1.524-.003 1.772.8 1.772 1.315v.123c-3.32-.005-5.416 1.063-5.416 3.238 0 1.329 1.066 2.573 2.923 2.573 1.143 0 2.096-.422 2.669-1.1h.055s.38 1.471 2.468.908c-.11-.614-.146-1.267-.146-2.053v-3.033h.003ZM3.12 5.23c.256 1.2.983 4.687.983 4.687.306 1.434.587 2.937.8 4.124h.038c.206-1.262.531-2.457.879-3.937L7.045 5.23H9.76l1.146 5c.3 1.39.54 2.462.73 3.755h.036c.206-1.306.476-2.422.77-3.85l1.103-4.905h2.603L12.92 16.576c-2.055.417-2.843-.351-3.124-1.57-.28-1.22-.832-3.543-.832-3.543-.283-1.272-.504-2.168-.658-3.473h-.039c-.22 1.292-.451 2.199-.793 3.47l-1.352 5.118c-2.1.39-2.827-.187-3.229-1.75C2.547 13.487.382 5.232.382 5.232H3.12V5.23Zm46.466 8.302c0 .156-.014.32-.06.46-.194.592-.852 1.091-1.673 1.091-.686 0-1.231-.36-1.231-1.126 0-1.17 1.388-1.495 2.967-1.488v1.063h-.003Zm2.476-2.04c0-1.933-.887-3.63-3.886-3.63-1.54 0-2.764.402-3.43.76l.487 1.551c.61-.358 1.582-.652 2.502-.652 1.52-.003 1.771.8 1.771 1.315v.123c-3.317-.005-5.413 1.063-5.413 3.238 0 1.329 1.069 2.573 2.923 2.573 1.14 0 2.096-.422 2.666-1.1h.058s.38 1.471 2.468.908c-.11-.614-.146-1.267-.146-2.053v-3.033Z"></path>
      <path fill="#FFC124" d="M74.77 12.668c.244.414.228.877-.033 1.088l-4.509 3.077c-.47.264-1.172-.056-1.57-.727-.401-.674-.33-1.425.14-1.69l4.992-2.261c.313-.118.735.099.98.513Zm5.934 0c.247-.414.667-.628.98-.516l4.995 2.262c.47.264.538 1.015.14 1.689-.401.67-1.107.989-1.574.727l-4.508-3.077c-.258-.208-.278-.673-.033-1.085Zm-2.969 1.668c.492 0 .895.246.95.57l.486 5.34c0 .53-.634.962-1.433.962-.796 0-1.433-.433-1.433-.962l.483-5.34c.055-.324.459-.57.947-.57Zm3.002-6.09 4.508-3.078c.467-.265 1.173.053 1.574.727.398.673.33 1.424-.14 1.689l-4.995 2.264c-.313.112-.736-.102-.98-.516-.245-.414-.225-.877.033-1.085ZM73.79 9.849l-4.992-2.264c-.467-.265-.538-1.016-.14-1.69.398-.673 1.103-.991 1.57-.726l4.509 3.079c.26.206.277.67.033 1.085-.245.414-.667.628-.98.516Zm2.998-2.753-.483-5.341c0-.53.634-.962 1.433-.962.8 0 1.433.433 1.433.962l-.486 5.34c-.055.322-.458.57-.95.57-.488 0-.892-.248-.947-.57Zm11.25 9.716v-.133h.123c.041 0 .069.026.069.066a.065.065 0 0 1-.069.067h-.123Zm-.102.244c0 .013.011.026.028.026h.052c.013 0 .027-.013.027-.026v-.153h.085l.069.16c.005.011.014.02.025.02h.063c.02 0 .033-.02.025-.038a7.22 7.22 0 0 1-.075-.15.148.148 0 0 0 .105-.15c0-.101-.085-.16-.17-.16h-.206c-.014 0-.028.013-.028.027v.444Zm-.222-.222c0-.217.18-.393.403-.393.223 0 .404.173.404.393a.397.397 0 0 1-.404.393.397.397 0 0 1-.403-.393Zm-.096 0c0 .267.222.486.5.486.274 0 .5-.219.5-.486a.495.495 0 0 0-.5-.487c-.278 0-.5.22-.5.487Z"></path>
    </g>
    <defs>
      <clipPath id="a">
        <path fill="#fff" d="M.382.792h88.235v20.417H.382z"></path>
      </clipPath>
    </defs>
  </symbol>
</svg>