<svg xmlns="http://www.w3.org/2000/svg" width="89" height="22" fill="none"><g clip-path="url(#a)"><path fill="#041E42" d="M31.782 8.054V9.21h.036c.422-.62 1.121-1.35 2.672-1.35 1.207 0 2.132.607 2.529 1.524h.036a3.732 3.732 0 0 1 1.162-1.062c.516-.295 1.088-.464 1.81-.464 1.634 0 3.08 1.05 3.08 3.697v5.02h-2.49v-4.67c0-1.341-.49-2.117-1.51-2.117-.746 0-1.29.466-1.496 1.04a2.185 2.185 0 0 0-.104.69v5.06h-2.49v-4.862c0-1.14-.472-1.93-1.477-1.93-.804 0-1.309.588-1.515 1.093a1.866 1.866 0 0 0-.116.696v5h-2.493V8.054h2.366Zm24.178 0V9.66h.07c.456-1.228 1.542-1.8 2.495-1.8.24 0 .372.019.565.055v2.232c-.23-.031-.441-.062-.739-.062-1.08 0-1.832.584-2.022 1.498a2.95 2.95 0 0 0-.055.63v4.364h-2.556V8.054h2.242Zm6.6-2.824v2.683h2.16v2.17h-2.16v3.203c0 1.037.284 1.539 1.127 1.539.397 0 .689-.046.942-.105l.033 1.8c-.339.117-1.06.245-1.793.245-.862 0-1.581-.28-2.02-.712-.5-.494-.732-1.303-.732-2.455V5.23h2.443ZM27.68 16.576h-2.479V5.23h2.48v11.346Zm-6.61-3.044c0 .156-.014.32-.061.46-.193.592-.851 1.091-1.672 1.091-.686 0-1.232-.36-1.232-1.126 0-1.17 1.389-1.495 2.967-1.488v1.063h-.002Zm2.476-2.04c0-1.933-.887-3.63-3.887-3.63-1.54 0-2.763.402-3.43.76l.488 1.551c.609-.358 1.581-.652 2.501-.652 1.524-.003 1.772.8 1.772 1.315v.123c-3.32-.005-5.416 1.063-5.416 3.238 0 1.329 1.066 2.573 2.923 2.573 1.143 0 2.096-.422 2.669-1.1h.055s.38 1.471 2.468.908c-.11-.614-.146-1.267-.146-2.053v-3.033h.003ZM3.12 5.23c.256 1.2.983 4.687.983 4.687.306 1.434.587 2.937.8 4.124h.038c.206-1.262.531-2.457.879-3.937L7.045 5.23H9.76l1.146 5c.3 1.39.54 2.462.73 3.755h.036c.206-1.306.476-2.422.77-3.85l1.103-4.905h2.603L12.92 16.576c-2.055.417-2.843-.351-3.124-1.57-.28-1.22-.832-3.543-.832-3.543-.283-1.272-.504-2.168-.658-3.473h-.039c-.22 1.292-.451 2.199-.793 3.47l-1.352 5.118c-2.1.39-2.827-.187-3.229-1.75C2.547 13.487.382 5.232.382 5.232H3.12V5.23Zm46.466 8.302c0 .156-.014.32-.06.46-.194.592-.852 1.091-1.673 1.091-.686 0-1.231-.36-1.231-1.126 0-1.17 1.388-1.495 2.967-1.488v1.063h-.003Zm2.476-2.04c0-1.933-.887-3.63-3.886-3.63-1.54 0-2.764.402-3.43.76l.487 1.551c.61-.358 1.582-.652 2.502-.652 1.52-.003 1.771.8 1.771 1.315v.123c-3.317-.005-5.413 1.063-5.413 3.238 0 1.329 1.069 2.573 2.923 2.573 1.14 0 2.096-.422 2.666-1.1h.058s.38 1.471 2.468.908c-.11-.614-.146-1.267-.146-2.053v-3.033Z"/><path fill="#FFC124" d="M74.77 12.668c.244.414.228.877-.033 1.088l-4.509 3.077c-.47.264-1.172-.056-1.57-.727-.401-.674-.33-1.425.14-1.69l4.992-2.261c.313-.118.735.099.98.513Zm5.934 0c.247-.414.667-.628.98-.516l4.995 2.262c.47.264.538 1.015.14 1.689-.401.67-1.107.989-1.574.727l-4.508-3.077c-.258-.208-.278-.673-.033-1.085Zm-2.969 1.668c.492 0 .895.246.95.57l.486 5.34c0 .53-.634.962-1.433.962-.796 0-1.433-.433-1.433-.962l.483-5.34c.055-.324.459-.57.947-.57Zm3.002-6.09 4.508-3.078c.467-.265 1.173.053 1.574.727.398.673.33 1.424-.14 1.689l-4.995 2.264c-.313.112-.736-.102-.98-.516-.245-.414-.225-.877.033-1.085ZM73.79 9.849l-4.992-2.264c-.467-.265-.538-1.016-.14-1.69.398-.673 1.103-.991 1.57-.726l4.509 3.079c.26.206.277.67.033 1.085-.245.414-.667.628-.98.516Zm2.998-2.753-.483-5.341c0-.53.634-.962 1.433-.962.8 0 1.433.433 1.433.962l-.486 5.34c-.055.322-.458.57-.95.57-.488 0-.892-.248-.947-.57Zm11.25 9.716v-.133h.123c.041 0 .069.026.069.066a.065.065 0 0 1-.069.067h-.123Zm-.102.244c0 .013.011.026.028.026h.052c.013 0 .027-.013.027-.026v-.153h.085l.069.16c.005.011.014.02.025.02h.063c.02 0 .033-.02.025-.038a7.22 7.22 0 0 1-.075-.15.148.148 0 0 0 .105-.15c0-.101-.085-.16-.17-.16h-.206c-.014 0-.028.013-.028.027v.444Zm-.222-.222c0-.217.18-.393.403-.393.223 0 .404.173.404.393a.397.397 0 0 1-.404.393.397.397 0 0 1-.403-.393Zm-.096 0c0 .267.222.486.5.486.274 0 .5-.219.5-.486a.495.495 0 0 0-.5-.487c-.278 0-.5.22-.5.487Z"/></g><defs><clipPath id="a"><path fill="#fff" d="M.382.792h88.235v20.417H.382z"/></clipPath></defs></svg>