<svg xmlns="http://www.w3.org/2000/svg" width="76" height="24" fill="none"><g clip-path="url(#a)"><path fill="#FF385C" d="M21.71 16.87c-.118-.285-.23-.584-.348-.839l-.55-1.217-.022-.022a239.82 239.82 0 0 0-5.227-10.559l-.075-.146c-.185-.342-.37-.721-.564-1.071-.237-.416-.468-.86-.846-1.284a3.926 3.926 0 0 0-1.36-1.044 3.995 3.995 0 0 0-3.369 0 3.926 3.926 0 0 0-1.36 1.044c-.349.423-.609.868-.846 1.284-.186.379-.372.75-.565 1.093l-.074.146c-1.819 3.5-3.594 7.058-5.227 10.558l-.045.044c-.163.38-.356.773-.542 1.196a13.83 13.83 0 0 0-.356.839 4.876 4.876 0 0 0-.297 2.524 4.913 4.913 0 0 0 1.015 2.338 5.04 5.04 0 0 0 2.062 1.536 5.134 5.134 0 0 0 2.566.332 6.299 6.299 0 0 0 2.361-.802c.965-.532 1.893-1.305 2.933-2.421 1.04 1.116 1.99 1.889 2.933 2.428a6.307 6.307 0 0 0 2.985.839 5.096 5.096 0 0 0 3.316-1.204 4.927 4.927 0 0 0 1.696-3.047c.198-.85.131-1.74-.194-2.552v.007Zm-10.662 1.21c-1.277-1.604-2.109-3.077-2.39-4.338a3.725 3.725 0 0 1-.075-1.43c.052-.371.193-.7.386-.977.446-.634 1.225-1.028 2.08-1.028.405-.012.807.075 1.17.253.363.178.675.442.908.768.193.292.334.613.379.985.074.422.044.91-.074 1.429-.283 1.24-1.114 2.727-2.384 4.338Zm9.46 1.08c-.085.6-.328 1.169-.706 1.648-.378.48-.877.854-1.448 1.086a3.677 3.677 0 0 1-1.796.233 4.706 4.706 0 0 1-1.797-.612 11.562 11.562 0 0 1-2.696-2.26c1.56-1.897 2.503-3.625 2.86-5.163.17-.73.192-1.386.118-1.991a3.992 3.992 0 0 0-.639-1.604 3.96 3.96 0 0 0-1.455-1.24 4.04 4.04 0 0 0-1.879-.423c-1.373 0-2.598.627-3.34 1.656a3.737 3.737 0 0 0-.632 1.611 4.717 4.717 0 0 0 .119 1.99c.356 1.54 1.322 3.29 2.859 5.178a10.587 10.587 0 0 1-2.696 2.275 4.73 4.73 0 0 1-1.797.605 3.582 3.582 0 0 1-2.596-.686 3.459 3.459 0 0 1-1.354-2.282 3.779 3.779 0 0 1 .216-1.823c.074-.233.185-.466.304-.743.163-.38.356-.773.542-1.167l.03-.051A236.724 236.724 0 0 1 7.9 4.89l.074-.146c.186-.35.371-.722.565-1.072.193-.372.4-.73.668-1.021.231-.271.52-.49.847-.639a2.503 2.503 0 0 1 2.932.639c.26.292.475.649.668 1.02.186.35.372.73.565 1.073l.074.146a286.9 286.9 0 0 1 5.198 10.507l.022.022c.193.379.356.802.542 1.166.119.285.237.51.312.751.14.657.215 1.24.14 1.823Zm10.335-1.24a3.786 3.786 0 0 1-1.621-.339 3.72 3.72 0 0 1-1.312-.996 4.724 4.724 0 0 1-1.188-3.266 5.02 5.02 0 0 1 1.233-3.34c.373-.43.838-.774 1.361-1.008a3.997 3.997 0 0 1 1.668-.348 3.24 3.24 0 0 1 1.558.351c.48.245.89.606 1.19 1.049l.074-1.145h2.168v8.808h-2.175l-.075-1.283c-.308.473-.735.86-1.24 1.126-.504.266-1.069.4-1.64.39Zm.565-2.1c.43 0 .809-.117 1.165-.328.327-.234.594-.54.802-.912.186-.372.282-.816.282-1.312a2.455 2.455 0 0 0-.247-1.25 2.507 2.507 0 0 0-.844-.967 2.22 2.22 0 0 0-2.317 0c-.326.233-.594.54-.802.912a2.88 2.88 0 0 0-.282 1.312c-.029.43.057.861.248 1.25.191.388.482.721.844.967.349.211.727.328 1.15.328ZM39.687 6.5c0 .255-.045.489-.164.678-.119.182-.282.35-.497.467-.216.116-.446.16-.683.16-.238 0-.476-.044-.69-.16a1.356 1.356 0 0 1-.498-.467 1.308 1.308 0 0 1-.164-.678c0-.262.052-.496.164-.678.118-.219.29-.35.497-.467a1.42 1.42 0 0 1 .69-.167c.237-.006.47.05.679.16.208.109.384.27.51.467.108.212.161.447.156.685Zm-2.525 11.156V8.864h2.361v8.808h-2.368l.007-.015Zm8.672-6.49v.03c-.11-.051-.26-.073-.37-.095-.15-.03-.268-.03-.41-.03-.66 0-1.157.19-1.484.584-.357.401-.52.963-.52 1.685v4.324h-2.368V8.856h2.175l.074 1.335c.238-.467.52-.817.921-1.08a2.333 2.333 0 0 1 1.344-.364c.17 0 .334.014.475.044.074.021.119.021.163.043v2.334Zm.95 6.49V5.247h2.362v4.74a3.729 3.729 0 0 1 1.188-1.007 3.79 3.79 0 0 1 2.426-.291c.82.173 1.555.612 2.088 1.246a4.724 4.724 0 0 1 1.188 3.274 5.02 5.02 0 0 1-1.232 3.34c-.373.43-.838.774-1.362 1.008a3.997 3.997 0 0 1-1.667.348 3.241 3.241 0 0 1-1.558-.351 3.174 3.174 0 0 1-1.19-1.049l-.074 1.145-2.168.022v-.015Zm4.567-1.837c.424 0 .802-.117 1.159-.328.326-.234.594-.54.802-.912.193-.372.282-.816.282-1.312 0-.489-.09-.934-.282-1.306a2.75 2.75 0 0 0-.802-.911 2.22 2.22 0 0 0-2.317 0c-.334.233-.594.54-.81.912a2.88 2.88 0 0 0-.282 1.312c-.029.43.057.861.248 1.25.192.388.482.721.844.967.349.211.728.328 1.158.328Zm5.577 1.845V8.856h2.175l.074 1.145a2.92 2.92 0 0 1 1.123-1.04 2.985 2.985 0 0 1 1.506-.338 3.086 3.086 0 0 1 1.691.47c.504.316.903.771 1.145 1.31.26.553.401 1.239.401 2.004v5.28h-2.369v-4.974c0-.612-.14-1.093-.423-1.45-.282-.35-.668-.54-1.158-.54-.357 0-.668.073-.943.233-.26.168-.475.38-.639.678a1.94 1.94 0 0 0-.237.985v5.046h-2.346Zm9.296 0V5.24h2.368v4.74c.321-.426.738-.772 1.22-1.011a3.52 3.52 0 0 1 1.55-.368 3.785 3.785 0 0 1 1.621.339 3.72 3.72 0 0 1 1.312.995 4.738 4.738 0 0 1 1.18 3.267 5.013 5.013 0 0 1-1.232 3.34 3.93 3.93 0 0 1-1.362 1.008 3.997 3.997 0 0 1-1.668.348 3.241 3.241 0 0 1-1.558-.351 3.173 3.173 0 0 1-1.189-1.05l-.067 1.146-2.175.022Zm4.588-1.845c.43 0 .81-.117 1.159-.328.334-.234.594-.54.809-.912.186-.372.282-.816.282-1.312a2.455 2.455 0 0 0-.248-1.25 2.507 2.507 0 0 0-.843-.967 2.22 2.22 0 0 0-2.317 0c-.327.233-.594.54-.802.912a2.606 2.606 0 0 0-.282 1.312c-.029.43.056.861.248 1.25.19.388.482.721.843.967a2.12 2.12 0 0 0 1.151.328Z"/></g><defs><clipPath id="a"><path fill="#fff" d="M0 .333h75.735v23.333H0z"/></clipPath></defs></svg>