<svg xmlns="http://www.w3.org/2000/svg" width="71" height="24" fill="none"><g clip-path="url(#a)"><path fill="#EA4335" d="M30.667 12.3c0 3.238-2.565 5.625-5.714 5.625-3.148 0-5.714-2.387-5.714-5.626 0-3.261 2.566-5.625 5.714-5.625 3.149 0 5.714 2.364 5.714 5.625Zm-2.5 0c0-2.025-1.488-3.41-3.214-3.41-1.725 0-3.212 1.385-3.212 3.41 0 2.003 1.487 3.408 3.212 3.408 1.726 0 3.213-1.408 3.213-3.409Z"/><path fill="#FBBC05" d="M42.995 12.3c0 3.238-2.566 5.625-5.714 5.625-3.149 0-5.715-2.387-5.715-5.626 0-3.259 2.566-5.625 5.715-5.625 3.148 0 5.714 2.364 5.714 5.625Zm-2.502 0c0-2.025-1.487-3.41-3.212-3.41-1.726 0-3.213 1.385-3.213 3.41 0 2.003 1.487 3.408 3.213 3.408 1.725 0 3.212-1.408 3.212-3.409Z"/><path fill="#4285F4" d="M54.807 7.014v10.099c0 4.154-2.48 5.851-5.413 5.851-2.761 0-4.423-1.823-5.05-3.315l2.179-.895c.387.915 1.338 1.996 2.868 1.996 1.878 0 3.04-1.144 3.04-3.297v-.81h-.087c-.56.683-1.638 1.279-2.999 1.279-2.848 0-5.457-2.45-5.457-5.603 0-3.175 2.609-5.645 5.457-5.645 1.358 0 2.437.596 3 1.258h.087v-.916h2.375v-.002Zm-2.198 5.305c0-1.98-1.338-3.429-3.04-3.429-1.726 0-3.172 1.449-3.172 3.43 0 1.96 1.446 3.388 3.171 3.388 1.703 0 3.041-1.428 3.041-3.389Z"/><path fill="#34A853" d="M58.724 1.094V17.58h-2.44V1.094h2.44Z"/><path fill="#EA4335" d="m68.231 14.15 1.942 1.279c-.627.916-2.137 2.493-4.746 2.493-3.236 0-5.653-2.47-5.653-5.625 0-3.346 2.438-5.626 5.373-5.626 2.956 0 4.402 2.324 4.874 3.579l.26.64-7.615 3.114c.583 1.128 1.49 1.704 2.76 1.704 1.275 0 2.158-.619 2.805-1.557Zm-5.976-2.023 5.09-2.088c-.28-.702-1.122-1.192-2.113-1.192-1.271 0-3.041 1.109-2.977 3.28Z"/><path fill="#4285F4" d="M10.005 10.836V8.449h8.143c.08.416.12.908.12 1.44 0 1.791-.495 4.005-2.092 5.583-1.554 1.598-3.539 2.45-6.169 2.45-4.874 0-8.973-3.921-8.973-8.735S5.133.452 10.007.452c2.697 0 4.618 1.045 6.061 2.407l-1.705 1.684c-1.035-.958-2.437-1.704-4.358-1.704-3.56 0-6.344 2.833-6.344 6.348 0 3.515 2.784 6.348 6.344 6.348 2.308 0 3.623-.915 4.466-1.747.683-.675 1.132-1.639 1.31-2.955l-5.776.003Z"/></g><defs><clipPath id="a"><path fill="#fff" d="M.941.333h69.853v23.333H.941z"/></clipPath></defs></svg>