<svg width="0" height="0" class="hidden">
  <symbol fill="none" xmlns="http://www.w3.org/2000/svg" viewBox="0 0 24 24" id="grow-up">
    <g id="Icon">
      <path id="Icon_2" fill-rule="evenodd" clip-rule="evenodd" d="M14.3999 8.4C13.7372 8.4 13.1999 7.86274 13.1999 7.2C13.1999 6.53726 13.7372 6 14.3999 6H20.3999C21.0626 6 21.5999 6.53726 21.5999 7.2V13.2C21.5999 13.8627 21.0626 14.4 20.3999 14.4C19.7372 14.4 19.1999 13.8627 19.1999 13.2V10.0971L14.0484 15.2485C13.5798 15.7172 12.82 15.7172 12.3514 15.2485L9.5999 12.4971L4.44843 17.6485C3.9798 18.1172 3.22 18.1172 2.75137 17.6485C2.28275 17.1799 2.28275 16.4201 2.75137 15.9515L8.75137 9.95147C9.22 9.48284 9.9798 9.48284 10.4484 9.95147L13.1999 12.7029L17.5028 8.4H14.3999Z" fill="white"></path>
    </g>
  </symbol>
  <symbol fill="none" xmlns="http://www.w3.org/2000/svg" viewBox="0 0 24 24" id="people">
    <g id="Icon">
      <g id="Icon_2">
        <path d="M15.6002 5.9999C15.6002 7.98813 13.9884 9.5999 12.0002 9.5999C10.012 9.5999 8.4002 7.98813 8.4002 5.9999C8.4002 4.01168 10.012 2.3999 12.0002 2.3999C13.9884 2.3999 15.6002 4.01168 15.6002 5.9999Z" fill="white"></path>
        <path d="M21.6002 8.3999C21.6002 9.72539 20.5257 10.7999 19.2002 10.7999C17.8747 10.7999 16.8002 9.72539 16.8002 8.3999C16.8002 7.07442 17.8747 5.9999 19.2002 5.9999C20.5257 5.9999 21.6002 7.07442 21.6002 8.3999Z" fill="white"></path>
        <path d="M16.8002 16.7999C16.8002 14.1489 14.6512 11.9999 12.0002 11.9999C9.34923 11.9999 7.2002 14.1489 7.2002 16.7999V20.3999H16.8002V16.7999Z" fill="white"></path>
        <path d="M7.2002 8.3999C7.2002 9.72539 6.12568 10.7999 4.8002 10.7999C3.47471 10.7999 2.4002 9.72539 2.4002 8.3999C2.4002 7.07442 3.47471 5.9999 4.8002 5.9999C6.12568 5.9999 7.2002 7.07442 7.2002 8.3999Z" fill="white"></path>
        <path d="M19.2002 20.3999V16.7999C19.2002 15.5349 18.874 14.3461 18.3011 13.3131C18.5885 13.2392 18.8897 13.1999 19.2002 13.1999C21.1884 13.1999 22.8002 14.8117 22.8002 16.7999V20.3999H19.2002Z" fill="white"></path>
        <path d="M5.69931 13.3131C5.12641 14.3461 4.8002 15.5349 4.8002 16.7999V20.3999H1.2002V16.7999C1.2002 14.8117 2.81197 13.1999 4.8002 13.1999C5.11065 13.1999 5.41192 13.2392 5.69931 13.3131Z" fill="white"></path>
      </g>
    </g>
  </symbol>
  <symbol fill="none" xmlns="http://www.w3.org/2000/svg" viewBox="0 0 24 24" id="presentation">
    <g id="Icon">
      <path id="Icon_2" fill-rule="evenodd" clip-rule="evenodd" d="M3.5999 3.6001C2.93716 3.6001 2.3999 4.13736 2.3999 4.8001C2.3999 5.46284 2.93716 6.0001 3.5999 6.0001V15.6001C3.5999 16.9256 4.67442 18.0001 5.9999 18.0001H9.10285L7.55137 19.5516C7.08275 20.0202 7.08275 20.78 7.55137 21.2486C8.02 21.7173 8.7798 21.7173 9.24843 21.2486L11.9999 18.4972L14.7514 21.2486C15.22 21.7173 15.9798 21.7173 16.4484 21.2486C16.9171 20.78 16.9171 20.0202 16.4484 19.5516L14.897 18.0001H17.9999C19.3254 18.0001 20.3999 16.9256 20.3999 15.6001V6.0001C21.0626 6.0001 21.5999 5.46284 21.5999 4.8001C21.5999 4.13736 21.0626 3.6001 20.3999 3.6001H3.5999ZM17.6484 9.24863C18.1171 8.78 18.1171 8.0202 17.6484 7.55157C17.1798 7.08294 16.42 7.08294 15.9514 7.55157L11.9999 11.503L10.4484 9.95157C9.9798 9.48294 9.22 9.48294 8.75137 9.95157L6.35137 12.3516C5.88275 12.8202 5.88275 13.58 6.35137 14.0486C6.82 14.5173 7.5798 14.5173 8.04843 14.0486L9.5999 12.4972L11.1514 14.0486C11.62 14.5173 12.3798 14.5173 12.8484 14.0486L17.6484 9.24863Z" fill="white"></path>
    </g>
  </symbol>
  <symbol fill="none" xmlns="http://www.w3.org/2000/svg" viewBox="0 0 24 24" id="smile">
    <path fill-rule="evenodd" clip-rule="evenodd" d="M12.0001 21.5999C6.69816 21.5999 2.4001 17.3018 2.4001 11.9999C2.4001 6.69797 6.69816 2.3999 12.0001 2.3999C17.302 2.3999 21.6001 6.69797 21.6001 11.9999C21.6001 17.3018 17.302 21.5999 12.0001 21.5999ZM15.6001 10.7999C14.9374 10.7999 14.4001 10.2626 14.4001 9.5999C14.4001 8.93716 14.9374 8.3999 15.6001 8.3999C16.2628 8.3999 16.8001 8.93716 16.8001 9.5999C16.8001 10.2626 16.2628 10.7999 15.6001 10.7999ZM7.2001 9.5999C7.2001 10.2626 7.73736 10.7999 8.4001 10.7999C9.06284 10.7999 9.6001 10.2626 9.6001 9.5999C9.6001 8.93716 9.06284 8.3999 8.4001 8.3999C7.73736 8.3999 7.2001 8.93716 7.2001 9.5999ZM7.75746 16.2424C7.28883 15.7738 7.28883 15.014 7.75746 14.5454C8.22608 14.0767 8.98588 14.0767 9.45451 14.5454C10.8604 15.9513 13.1398 15.9513 14.5457 14.5454C15.0143 14.0767 15.7741 14.0767 16.2427 14.5454C16.7114 15.014 16.7114 15.7738 16.2427 16.2424C13.8996 18.5856 10.1006 18.5856 7.75746 16.2424Z" fill="white"></path>
  </symbol>
</svg>