<svg xmlns="http://www.w3.org/2000/svg" width="72" height="26" fill="none"><g fill-rule="evenodd" clip-path="url(#a)" clip-rule="evenodd"><path fill="#1D1E25" d="m63.262 12.155-4.55 7.9-3.88.016 8.43-14.87 8.4 14.87h-3.943l-4.457-7.917v.001Zm-12.25 4.477h4.347l-2.018 3.439h-5.666l.015-4.188V5.293h3.338l-.015 11.339h-.001ZM39.089 5.293c4.145.016 7.499 3.316 7.483 7.396-.015 4.065-3.369 7.366-7.515 7.366-4.13-.015-7.483-3.316-7.483-7.396.015-4.065 3.37-7.366 7.515-7.366Zm-.015 11.324c2.22 0 4.004-1.758 4.004-3.928.016-2.17-1.785-3.943-3.989-3.943-2.205-.015-4.006 1.758-4.006 3.928-.015 2.17 1.785 3.943 3.99 3.943Zm-13.679-5.102c-.046-.612-.202-1.421-.435-2.2a11.182 11.182 0 0 0-2.437-4.325c-.59-.642-1.258-1.238-2.252-1.941a37.883 37.883 0 0 1-2.235-1.207c-.482-.275-1.056-.612-1.817-.856a13.02 13.02 0 0 0-2.748-.351c-.9-.031-1.801.046-2.67.214-.917.152-1.678.396-2.687.641-2.283.993-4.052 2.491-5.574 4.478-5.31 7.473-.512 17.94 8.354 19.178 1.46.2 2.919.122 4.3-.198l.978-.26a.287.287 0 0 1 .109-.03l1.118-.428c.062-.031.108-.047.17-.077l.467-.214a12.735 12.735 0 0 0 2.5-1.635A14.284 14.284 0 0 1 18.267 24l.047.031c.156-.046.295-.092.45-.122 0 0 0 .244-.03.198-.249.184.14.016.636-.245.497-.26.978-.58 1.412-.947.638-.535 1.196-1.116 1.988-2.063.807-1.421 1.817-2.66 2.283-4.325.155-.443.294-.962.388-1.498a9.686 9.686 0 0 0 .155-1.65 12.674 12.674 0 0 0-.202-1.864Zm-11.49 12.562c2.718-.429 5-1.94 6.863-4.004.513-.75.916-1.437 1.413-2.186.62-1.528.575-2.888.776-3.85.25-1.743-.341-3.149-.838-4.646-.76-1.742-1.77-3.04-3.54-4.05C14.107 2.561 8.021 3.34 5.118 7.496c-.015 0-.094.107-.249.32.202-.855.715-1.359 1.227-1.849 1.522-1.252 3.292-2.246 5.31-2.734 2.283-.245 4.549 0 6.583.993 3.043 1.741 5.062 4.478 5.574 7.716v2.996c-.637 4.906-4.829 8.635-9.657 9.139ZM25.07 12.92C24.96 5.739 17.865.894 10.956 1.873c-2.019.503-4.224 1.512-5.792 2.918-.76.504-1.117 1.437-1.878 2.185C.242 11.454.77 17.185 4.558 20.67a14.72 14.72 0 0 0 1.553 1.345c-3.167-1.912-4.596-4.8-5.092-8.314 0-1.254.248-2.492.512-3.744C3.3 4.47 8.875.48 14.946 1.49c1.01.245 2.019.505 3.044.75 1.273.503 2.53 1.252 3.54 2.246 1.009.993 1.77 2.246 2.53 3.483.513.994.762 2.247 1.01 3.24.046.566.046 1.147 0 1.713v-.001Z"/><path fill="#fff" d="M18.765 13.028c0 3.087-2.577 5.594-5.76 5.594-3.182 0-5.76-2.507-5.76-5.594s2.577-5.593 5.76-5.593 5.76 2.506 5.76 5.594v-.001Z"/><path fill="#D7DF23" d="M18.797 12.08c-.078-.427-.202-.763-.326-1.237-.497-1.04-1.227-1.849-2.19-2.537-3.601-2.399-8.555-.091-9.082 4.005-.201 1.62.373 3.178 1.398 4.37-.311-.32-.652-.656-.885-1.039l-.03.031c.03.091.154.153.185.244 0 0-.124 0-.093-.015-.093-.106-.015.062.124.29.124.23.28.444.466.642.264.29.543.55 1.009.902.684.351 1.289.81 2.08 1.024.218.062.466.122.715.168.264.046.512.062.792.062.264 0 .543-.031.885-.093.352-.042.7-.113 1.04-.213.76-.23 1.46-.628 2.05-1.162.295-.275.714-.626 1.04-1.085.264-.52.295-.78.42-1.009.123-.23.278-.489.387-.84.09-.418.141-.842.156-1.269-.016-.427-.046-.84-.14-1.238h-.001ZM15.101 9.24c.528.305.606.35.326.152.405.092.653.321.901.55.606.688 1.102 1.498 1.35 2.43.14 1.054.031 2.109-.418 3.042-.807 1.42-2.096 2.368-3.634 2.628-.17 0-.356 0-.528.015.435-.077.715-.352 1.507-.642.853-.305 1.816-1.726 2.283-2.552 1.365-2.247-.25-4.325-1.787-5.623Zm-2.918 8.832c-2.36-.244-4.177-2.185-4.425-4.432.217 1.254.962 2.216 1.971 3.072.358.23.885.55 1.243.78.605.229.962.474 1.552.58h-.341Zm6.35-4.08c-.108.474-.217.932-.326 1.406-.233.581-.575 1.177-1.04 1.65-.466.475-1.056.841-1.646 1.193-.466.244-1.056.366-1.537.488-.28.03-.606-.092-.886-.106 3.448-.093 5.807-3.316 5.295-6.51-.249-.932-.745-1.743-1.35-2.552-.25-.352-.731-.566-1.088-.918-2.158-1.36-5.014-1.084-6.644.704a7.421 7.421 0 0 0-.638.748c.87-1.284 2.268-2.185 3.944-2.445.59-.015 1.196.092 1.786.2 2.608.793 4.55 3.33 4.13 6.143Z"/></g><defs><clipPath id="a"><path fill="#fff" d="M.259.604H71.74v24.792H.259z"/></clipPath></defs></svg>